<?xml version="1.0" encoding="utf-8"?><svg viewBox="0 0 25 29" xmlns="http://www.w3.org/2000/svg" xmlns:xlink="http://www.w3.org/1999/xlink"><style>:root>svg{display:none}:root>svg:target{display:block}</style><svg fill="none" viewBox="0 0 18 29" id="arrow" xmlns="http://www.w3.org/2000/svg"><path d="M.879 13.594c-.58.58-.58 1.547 0 2.127l12.504 12.568c.644.58 1.611.58 2.191 0l1.483-1.482c.58-.58.58-1.547 0-2.192l-9.926-9.99 9.926-9.926c.58-.644.58-1.611 0-2.191l-1.483-1.483c-.58-.58-1.547-.58-2.191 0L.879 13.594Z" fill="#fff"/></svg><svg fill="none" viewBox="0 0 19 19" id="discount" xmlns="http://www.w3.org/2000/svg"><path d="M0 9.145c0 .457.176.878.492 1.195l7.418 7.418c.668.668 1.758.668 2.39 0l7.173-7.172c.668-.633.668-1.723 0-2.39L10.055.776C9.738.461 9.316.25 8.859.25H1.688C.738.25 0 1.023 0 1.938v7.207ZM3.938 2.5c.914 0 1.687.773 1.687 1.688 0 .949-.773 1.687-1.688 1.687-.949 0-1.687-.738-1.687-1.688 0-.914.738-1.687 1.688-1.687Z" fill="#fff"/></svg><svg fill="none" viewBox="0 0 15 19" id="map-marker" xmlns="http://www.w3.org/2000/svg"><path d="M6.797 18.398a.821.821 0 0 0 1.371 0c5.133-7.382 6.082-8.156 6.082-10.898A6.752 6.752 0 0 0 7.5.75 6.73 6.73 0 0 0 .75 7.5c0 2.742.914 3.516 6.047 10.898Zm.703-8.085A2.777 2.777 0 0 1 4.687 7.5 2.798 2.798 0 0 1 7.5 4.687 2.82 2.82 0 0 1 10.313 7.5 2.798 2.798 0 0 1 7.5 10.313Z" fill="var(--primary-color)"/></svg><svg fill="none" viewBox="0 0 25 24" id="star" xmlns="http://www.w3.org/2000/svg"><path d="M11.129 1.523 8.336 7.238l-6.316.903c-1.118.171-1.547 1.546-.73 2.363L5.8 14.93l-1.073 6.23c-.172 1.117 1.03 1.977 2.02 1.461l5.628-2.965 5.586 2.965c.988.516 2.191-.344 2.02-1.46l-1.075-6.231 4.512-4.426c.816-.816.387-2.191-.73-2.363l-6.274-.903-2.836-5.715c-.473-.988-1.933-1.03-2.45 0Z" fill="var(--primary-color)"/></svg><svg fill="none" viewBox="0 0 18 18" id="time" xmlns="http://www.w3.org/2000/svg"><path d="M9 .531A8.717 8.717 0 0 0 .281 9.25 8.717 8.717 0 0 0 9 17.969a8.717 8.717 0 0 0 8.719-8.719A8.717 8.717 0 0 0 9 .531Zm3.234 11.004-.703.88c-.105.14-.246.245-.457.245a.524.524 0 0 1-.316-.14l-2.356-1.758c-.351-.246-.527-.633-.527-1.09V4.187c0-.28.246-.562.563-.562h1.124c.282 0 .563.281.563.563V9.25l2.04 1.512c.105.105.21.246.21.422 0 .14-.07.28-.14.351Z" fill="#fff"/></svg></svg>