<svg width="198" height="36" viewBox="0 0 198 36" fill="none" xmlns="http://www.w3.org/2000/svg">
<mask id="mask0_401_1244" style="mask-type:alpha" maskUnits="userSpaceOnUse" x="0" y="3" width="28" height="30">
<path d="M8.89428 29.3647C8.89428 31.366 7.27197 32.9883 5.27075 32.9883C3.26953 32.9883 1.64722 31.366 1.64722 29.3647C1.64722 27.3635 3.26953 25.7412 5.27075 25.7412C7.27197 25.7412 8.89428 27.3635 8.89428 29.3647Z" fill="#C4C4C4"/>
<path d="M26.3533 29.3647C26.3533 31.366 24.731 32.9883 22.7297 32.9883C20.7285 32.9883 19.1062 31.366 19.1062 29.3647C19.1062 27.3635 20.7285 25.7412 22.7297 25.7412C24.731 25.7412 26.3533 27.3635 26.3533 29.3647Z" fill="#C4C4C4"/>
<path fill-rule="evenodd" clip-rule="evenodd" d="M25.1913 26.7058C25.4382 26.9345 25.4094 27.3209 25.1508 27.5363C23.7802 28.6779 22.0174 29.3647 20.0941 29.3647H19.7649C19.401 29.3647 19.0998 29.0671 19.1652 28.7091C19.4737 27.0209 20.9522 25.7412 22.7296 25.7412C23.68 25.7412 24.545 26.1071 25.1913 26.7058ZM27.0987 25.1282C26.8986 25.5093 26.3844 25.543 26.0504 25.2717C25.144 24.5354 23.9883 24.0942 22.7296 24.0942C20.0414 24.0942 17.8233 26.1066 17.4996 28.7072C17.4547 29.0682 17.164 29.3647 16.8002 29.3647H11.2C10.8361 29.3647 10.5455 29.0682 10.5006 28.7072C10.1769 26.1066 7.95876 24.0942 5.27059 24.0942C4.0118 24.0942 2.85608 24.5354 1.94969 25.2718C1.61563 25.5431 1.10145 25.5094 0.901402 25.1283C0.325709 24.0317 0 22.7833 0 21.4588V19.8116C0 19.4478 0.294965 19.1528 0.658823 19.1528H27.3412C27.705 19.1528 28 19.4478 28 19.8116V21.4588C28 22.7832 27.6743 24.0316 27.0987 25.1282ZM28 16.8469C28 17.2108 27.705 17.5057 27.3412 17.5057H0.658824C0.294965 17.5057 0 17.2108 0 16.8469V12.894C0 12.5302 0.294965 12.2352 0.658823 12.2352H27.3412C27.705 12.2352 28 12.5302 28 12.894V16.8469ZM7.90588 3.01172C3.883 3.01172 0.561907 6.0164 0.0643695 9.904C0.0168356 10.2754 0.318678 10.5881 0.693122 10.5881H27.3069C27.6813 10.5881 27.9832 10.2754 27.9356 9.904C27.4381 6.0164 24.117 3.01172 20.0941 3.01172H7.90588ZM5.27059 25.7412C7.04795 25.7412 8.52644 27.0209 8.83496 28.7091C8.90037 29.0671 8.59914 29.3647 8.23528 29.3647H7.90588C5.98268 29.3647 4.21987 28.6779 2.84928 27.5364C2.59074 27.321 2.56193 26.9345 2.80878 26.7059C3.45509 26.1072 4.3201 25.7412 5.27059 25.7412Z" fill="#C4C4C4"/>
</mask>
<g mask="url(#mask0_401_1244)">
<rect x="-1.64722" y="0.706055" width="33.6" height="10.8706" fill="url(#paint0_linear_401_1244)"/>
<rect x="-1.64722" y="18.4941" width="33.6" height="16.4706" fill="#FFA833"/>
<rect x="-1.64722" y="11.5767" width="33.6" height="7.24706" rx="3.62353" fill="#F17228"/>
<rect x="-23.0586" y="25.7412" width="31.9529" height="7.24706" fill="#F58D00"/>
<rect x="19.1062" y="25.7412" width="31.9529" height="7.24706" fill="#F58D00"/>
<ellipse cx="8.11249" cy="5.82316" rx="1" ry="0.5" transform="rotate(-20.8548 8.11249 5.82316)" fill="white"/>
<ellipse cx="14" cy="5.5" rx="1" ry="0.5" fill="white"/>
<ellipse cx="19.1176" cy="5.91225" rx="1" ry="0.5" transform="rotate(28.1155 19.1176 5.91225)" fill="white"/>
</g>
<path d="M42.2999 30V18.147H40.2466V14.756L42.2999 14.6005V13.7605C42.2999 12.9516 42.3932 12.1842 42.5799 11.4583C42.7873 10.7324 43.1192 10.0998 43.5754 9.5606C44.0317 9.02136 44.6228 8.59619 45.3487 8.28508C46.0746 7.97398 46.9561 7.81843 47.9931 7.81843C48.636 7.81843 49.2168 7.88065 49.7353 8.00509C50.2745 8.12953 50.7204 8.25397 51.073 8.37841L50.233 11.7383C49.6523 11.5309 49.1234 11.4272 48.6464 11.4272C48.0864 11.4272 47.6509 11.6035 47.3398 11.9561C47.0287 12.2879 46.8731 12.8479 46.8731 13.636V14.5693H49.6419V18.147H46.8731V30H42.2999ZM57.6701 30.3733C56.6953 30.3733 55.7516 30.197 54.839 29.8444C53.9265 29.4711 53.1176 28.9423 52.4124 28.2578C51.728 27.5734 51.1784 26.7334 50.7636 25.7379C50.3488 24.7216 50.1414 23.5706 50.1414 22.2847C50.1414 20.9988 50.3488 19.8581 50.7636 18.8625C51.1784 17.8463 51.728 16.9959 52.4124 16.3115C53.1176 15.6271 53.9265 15.1086 54.839 14.756C55.7516 14.3827 56.6953 14.196 57.6701 14.196C58.6448 14.196 59.5781 14.3827 60.47 14.756C61.3825 15.1086 62.181 15.6271 62.8655 16.3115C63.5706 16.9959 64.1306 17.8463 64.5454 18.8625C64.9602 19.8581 65.1676 20.9988 65.1676 22.2847C65.1676 23.5706 64.9602 24.7216 64.5454 25.7379C64.1306 26.7334 63.5706 27.5734 62.8655 28.2578C62.181 28.9423 61.3825 29.4711 60.47 29.8444C59.5781 30.197 58.6448 30.3733 57.6701 30.3733ZM57.6701 26.6712C58.6034 26.6712 59.3085 26.2771 59.7855 25.489C60.2626 24.7009 60.5011 23.6328 60.5011 22.2847C60.5011 20.9366 60.2626 19.8684 59.7855 19.0803C59.3085 18.2922 58.6034 17.8981 57.6701 17.8981C56.716 17.8981 56.0005 18.2922 55.5235 19.0803C55.0672 19.8684 54.839 20.9366 54.839 22.2847C54.839 23.6328 55.0672 24.7009 55.5235 25.489C56.0005 26.2771 56.716 26.6712 57.6701 26.6712ZM74.1487 30.3733C73.174 30.3733 72.2303 30.197 71.3177 29.8444C70.4051 29.4711 69.5963 28.9423 68.8911 28.2578C68.2067 27.5734 67.6571 26.7334 67.2423 25.7379C66.8275 24.7216 66.6201 23.5706 66.6201 22.2847C66.6201 20.9988 66.8275 19.8581 67.2423 18.8625C67.6571 17.8463 68.2067 16.9959 68.8911 16.3115C69.5963 15.6271 70.4051 15.1086 71.3177 14.756C72.2303 14.3827 73.174 14.196 74.1487 14.196C75.1235 14.196 76.0568 14.3827 76.9487 14.756C77.8612 15.1086 78.6597 15.6271 79.3441 16.3115C80.0493 16.9959 80.6093 17.8463 81.0241 18.8625C81.4389 19.8581 81.6463 20.9988 81.6463 22.2847C81.6463 23.5706 81.4389 24.7216 81.0241 25.7379C80.6093 26.7334 80.0493 27.5734 79.3441 28.2578C78.6597 28.9423 77.8612 29.4711 76.9487 29.8444C76.0568 30.197 75.1235 30.3733 74.1487 30.3733ZM74.1487 26.6712C75.082 26.6712 75.7872 26.2771 76.2642 25.489C76.7413 24.7009 76.9798 23.6328 76.9798 22.2847C76.9798 20.9366 76.7413 19.8684 76.2642 19.0803C75.7872 18.2922 75.082 17.8981 74.1487 17.8981C73.1947 17.8981 72.4792 18.2922 72.0021 19.0803C71.5459 19.8684 71.3177 20.9366 71.3177 22.2847C71.3177 23.6328 71.5459 24.7009 72.0021 25.489C72.4792 26.2771 73.1947 26.6712 74.1487 26.6712ZM89.5075 30.3733C88.5534 30.3733 87.6823 30.1867 86.8942 29.8133C86.1268 29.44 85.4631 28.9111 84.9031 28.2267C84.3639 27.5216 83.9387 26.6712 83.6276 25.6757C83.3373 24.6802 83.1921 23.5498 83.1921 22.2847C83.1921 21.0195 83.3684 19.8892 83.721 18.8937C84.0943 17.8981 84.5713 17.0582 85.152 16.3737C85.7535 15.6686 86.4379 15.1293 87.2053 14.756C87.9934 14.3827 88.7919 14.196 89.6008 14.196C90.4719 14.196 91.1874 14.3412 91.7474 14.6316C92.3074 14.9219 92.857 15.316 93.3962 15.8138L93.2096 13.4494V8.19175H97.7828V30H94.0495L93.7384 28.4756H93.614C93.0748 29.0148 92.4422 29.4711 91.7163 29.8444C90.9904 30.197 90.2541 30.3733 89.5075 30.3733ZM90.6896 26.6401C91.1874 26.6401 91.6333 26.5364 92.0274 26.329C92.4422 26.1216 92.8362 25.7586 93.2096 25.2401V18.9248C92.7948 18.5514 92.3696 18.2922 91.934 18.147C91.4985 18.0018 91.0733 17.9292 90.6585 17.9292C89.9326 17.9292 89.2897 18.2818 88.7297 18.987C88.1697 19.6714 87.8897 20.7499 87.8897 22.2225C87.8897 23.7572 88.1282 24.8772 88.6053 25.5824C89.103 26.2875 89.7978 26.6401 90.6896 26.6401Z" fill="#F17228"/>
<path d="M104.911 30L101.053 14.5693H105.595L107.088 21.7247C107.213 22.4921 107.327 23.2491 107.431 23.9957C107.534 24.7424 107.648 25.5098 107.773 26.2979H107.897C108.042 25.5098 108.177 24.732 108.302 23.9646C108.447 23.1972 108.613 22.4506 108.799 21.7247L110.511 14.5693H114.462L116.204 21.7247C116.39 22.4921 116.556 23.2491 116.701 23.9957C116.867 24.7424 117.023 25.5098 117.168 26.2979H117.293C117.438 25.5098 117.552 24.7424 117.635 23.9957C117.738 23.2491 117.863 22.4921 118.008 21.7247L119.47 14.5693H123.701L119.999 30H114.648L113.248 23.8402C113.103 23.1143 112.958 22.3884 112.813 21.6625C112.688 20.9366 112.553 20.1588 112.408 19.3292H112.284C112.139 20.1588 112.004 20.9366 111.879 21.6625C111.776 22.3884 111.651 23.1143 111.506 23.8402L110.137 30H104.911ZM129.444 30.3733C128.034 30.3733 126.914 29.9274 126.084 29.0356C125.255 28.123 124.84 27.0134 124.84 25.7068C124.84 24.0891 125.524 22.8239 126.893 21.9113C128.262 20.9988 130.471 20.3869 133.52 20.0758C133.478 19.3914 133.271 18.8522 132.897 18.4581C132.545 18.0433 131.943 17.8359 131.093 17.8359C130.45 17.8359 129.797 17.9604 129.133 18.2092C128.469 18.4581 127.764 18.8003 127.018 19.2359L125.369 16.2182C126.344 15.6167 127.381 15.1293 128.48 14.756C129.6 14.3827 130.761 14.196 131.964 14.196C133.934 14.196 135.449 14.7664 136.506 15.9071C137.564 17.0478 138.093 18.8003 138.093 21.1647V30H134.36L134.049 28.4134H133.924C133.281 28.9941 132.586 29.4711 131.84 29.8444C131.114 30.197 130.315 30.3733 129.444 30.3733ZM131 26.8268C131.518 26.8268 131.964 26.7127 132.338 26.4845C132.732 26.2357 133.126 25.9142 133.52 25.5201V22.8135C131.902 23.0209 130.782 23.3528 130.16 23.8091C129.538 24.2446 129.226 24.7631 129.226 25.3646C129.226 25.8623 129.382 26.2357 129.693 26.4845C130.025 26.7127 130.461 26.8268 131 26.8268ZM148.786 30.3054C147.241 30.3054 145.833 30 144.56 29.3891C143.305 28.7612 142.303 27.8195 141.557 26.5637C140.81 25.308 140.437 23.7384 140.437 21.8548C140.437 20.4633 140.657 19.233 141.099 18.164C141.54 17.078 142.142 16.1616 142.906 15.415C143.669 14.6683 144.543 14.1083 145.528 13.735C146.529 13.3447 147.581 13.1496 148.684 13.1496C149.906 13.1496 150.966 13.3702 151.866 13.8114C152.765 14.2356 153.503 14.7447 154.08 15.3386L151.789 18.1385C151.382 17.7822 150.949 17.4937 150.491 17.2731C150.05 17.0355 149.498 16.9167 148.837 16.9167C147.717 16.9167 146.783 17.341 146.037 18.1894C145.29 19.0209 144.917 20.1918 144.917 21.7021C144.917 23.2463 145.265 24.4426 145.96 25.291C146.673 26.1225 147.768 26.5383 149.244 26.5383C149.481 26.5383 149.711 26.5128 149.931 26.4619C150.169 26.411 150.364 26.3347 150.517 26.2328V23.942H148.073V20.3785H154.386V28.2691C153.809 28.8291 153.02 29.3127 152.018 29.72C151.034 30.1103 149.957 30.3054 148.786 30.3054ZM163.912 30.3733C162.605 30.3733 161.371 30.0622 160.21 29.44C159.069 28.7971 158.146 27.8741 157.441 26.6712C156.736 25.4475 156.383 23.9854 156.383 22.2847C156.383 20.5632 156.736 19.1011 157.441 17.8981C158.146 16.6952 159.069 15.7826 160.21 15.1604C161.371 14.5175 162.605 14.196 163.912 14.196C165.219 14.196 166.442 14.5175 167.583 15.1604C168.724 15.7826 169.647 16.6952 170.352 17.8981C171.057 19.1011 171.409 20.5632 171.409 22.2847C171.409 23.9854 171.057 25.4475 170.352 26.6712C169.647 27.8741 168.724 28.7971 167.583 29.44C166.442 30.0622 165.219 30.3733 163.912 30.3733ZM163.912 26.6712C164.845 26.6712 165.55 26.2771 166.027 25.489C166.504 24.6802 166.743 23.612 166.743 22.2847C166.743 20.9366 166.504 19.8684 166.027 19.0803C165.55 18.2922 164.845 17.8981 163.912 17.8981C162.958 17.8981 162.242 18.2922 161.765 19.0803C161.309 19.8684 161.081 20.9366 161.081 22.2847C161.081 23.612 161.309 24.6802 161.765 25.489C162.242 26.2771 162.958 26.6712 163.912 26.6712ZM173.764 30V14.5693H177.497L177.808 16.5293H177.933C178.597 15.9071 179.322 15.3678 180.111 14.9116C180.919 14.4345 181.842 14.196 182.879 14.196C184.559 14.196 185.773 14.756 186.519 15.876C187.287 16.9752 187.67 18.4892 187.67 20.4181V30H183.097V21.0092C183.097 19.8892 182.942 19.1218 182.631 18.707C182.34 18.2922 181.863 18.0848 181.199 18.0848C180.619 18.0848 180.121 18.2196 179.706 18.4892C179.291 18.7381 178.835 19.1011 178.337 19.5781V30H173.764Z" fill="#FFB30E"/>
<defs>
<linearGradient id="paint0_linear_401_1244" x1="14.9999" y1="2.5" x2="14.9999" y2="20" gradientUnits="userSpaceOnUse">
<stop stop-color="#FFD16D"/>
<stop offset="1" stop-color="#FF7A00"/>
</linearGradient>
</defs>
</svg>
